<?xml version="1.0" encoding="utf-8"?><svg xmlns="http://www.w3.org/2000/svg" xmlns:xlink="http://www.w3.org/1999/xlink" width="1536" height="754" preserveAspectRatio="xMidYMid" viewBox="0 0 1536 754" style="z-index:1;margin-right:-1.6px;display:block;background-repeat-y:initial;background-repeat-x:initial;background-color:rgb(241, 242, 243);animation-play-state:paused" ><g transform="translate(768,377) scale(1,1) translate(-768,-377)" style="transform:matrix(1, 0, 0, 1, 0, 0);animation-play-state:paused" ><defs style="animation-play-state:paused" ><linearGradient id="ldbk-photon-ahff726emjs-lg" x1="743" x2="1536" y1="0" y2="0" gradientUnits="userSpaceOnUse" style="animation-play-state:paused" ><stop stop-color="#df1317" offset="0" style="animation-play-state:paused" ></stop>

    
<stop stop-color="#e4934b" offset="1" style="animation-play-state:paused" ></stop></linearGradient>

  
<mask id="ldbk-photon-ahff726emjs-mask" style="animation-play-state:paused" ><g style="animation-play-state:paused" ><path d="M1836 -0.5 L725.5755369762069 -0.5 A15.5 15.5 0 0 1 725.5755369762069 31.5 L1836 31.5" fill="#fff" transform="matrix(1,0,0,1,47.330657958984375,0)" style="transform:matrix(1, 0, 0, 1, 47.3307, 0);animation-play-state:paused" ></path>
<path d="M1579.5150981844847 -0.5 L1592.0301963689694 -0.5 A15.5 15.5 0 0 1 1592.0301963689694 31.5 L1579.5150981844847 31.5 A15.5 15.5 0 0 1 1579.5150981844847 -0.5" fill="#000" transform="matrix(1,0,0,1,0,0)" opacity="1" style="transform:matrix(1, 0, 0, 1, 0, 0);animation-play-state:paused" ></path>
<path d="M1836 30.5 L710.9235756384783 30.5 A15.5 15.5 0 0 0 710.9235756384783 62.5 L1836 62.5" fill="#fff" transform="matrix(1,0,0,1,-22.182889938354492,0)" style="transform:matrix(1, 0, 0, 1, -22.1829, 0);animation-play-state:paused" ></path>
<path d="M830.7059648433615 30.5 L863.2759026228052 30.5 A15.5 15.5 0 0 1 863.2759026228052 62.5 L830.7059648433615 62.5 A15.5 15.5 0 0 1 830.7059648433615 30.5" fill="#fff" transform="matrix(1,0,0,1,0,0)" opacity="1" style="transform:matrix(1, 0, 0, 1, 0, 0);animation-play-state:paused" ></path>
<path d="M1836 61.5 L745.1168114814344 61.5 A15.5 15.5 0 0 1 745.1168114814344 93.5 L1836 93.5" fill="#fff" transform="matrix(1,0,0,1,23.126605987548828,0)" style="transform:matrix(1, 0, 0, 1, 23.1266, 0);animation-play-state:paused" ></path>
<path d="M1594.7663912870623 61.5 L1622.5327825741247 61.5 A15.5 15.5 0 0 1 1622.5327825741247 93.5 L1594.7663912870623 93.5 A15.5 15.5 0 0 1 1594.7663912870623 61.5" fill="#000" transform="matrix(1,0,0,1,-373.5201721191406,0)" opacity="1" style="transform:matrix(1, 0, 0, 1, -373.52, 0);animation-play-state:paused" ></path>
<path d="M1836 92.5 L731.6927614594653 92.5 A15.5 15.5 0 0 0 731.6927614594653 124.5 L1836 124.5" fill="#fff" transform="matrix(1,0,0,1,-6.4749908447265625,0)" style="transform:matrix(1, 0, 0, 1, -6.47499, 0);animation-play-state:paused" ></path>
<path d="M790.7415316222072 92.5 L829.9860058884557 92.5 A15.5 15.5 0 0 1 829.9860058884557 124.5 L790.7415316222072 124.5 A15.5 15.5 0 0 1 790.7415316222072 92.5" fill="#fff" transform="matrix(1,0,0,1,0,0)" opacity="0.914286" style="transform:matrix(1, 0, 0, 1, 0, 0);opacity:0.914286;animation-play-state:paused" ></path>
<path d="M1836 123.5 L740.8146326093032 123.5 A15.5 15.5 0 0 1 740.8146326093032 155.5 L1836 155.5" fill="#fff" transform="matrix(1,0,0,1,1.0125198364257812,0)" style="transform:matrix(1, 0, 0, 1, 1.01252, 0);animation-play-state:paused" ></path>
<path d="M1602.7522987767566 123.5 L1638.5045975535131 123.5 A15.5 15.5 0 0 1 1638.5045975535131 155.5 L1602.7522987767566 155.5 A15.5 15.5 0 0 1 1602.7522987767566 123.5" fill="#000" transform="matrix(1,0,0,1,-1728.1624755859375,0)" opacity="0.0571429" style="transform:matrix(1, 0, 0, 1, -1728.16, 0);opacity:0.0571429;animation-play-state:paused" ></path>
<path d="M1836 154.5 L700.736053030206 154.5 A15.5 15.5 0 0 0 700.736053030206 186.5 L1836 186.5" fill="#fff" transform="matrix(1,0,0,1,-22.56122589111328,0)" style="transform:matrix(1, 0, 0, 1, -22.5612, 0);animation-play-state:paused" ></path>
<path d="M777.7524492338443 154.5 L814.5484284956678 154.5 A15.5 15.5 0 0 1 814.5484284956678 186.5 L777.7524492338443 186.5 A15.5 15.5 0 0 1 777.7524492338443 154.5" fill="#fff" transform="matrix(1,0,0,1,0,0)" opacity="0.285714" style="transform:matrix(1, 0, 0, 1, 0, 0);opacity:0.285714;animation-play-state:paused" ></path>
<path d="M1836 185.5 L738.5586165834039 185.5 A15.5 15.5 0 0 1 738.5586165834039 217.5 L1836 217.5" fill="#fff" transform="matrix(1,0,0,1,31.975923538208008,0)" style="transform:matrix(1, 0, 0, 1, 31.9759, 0);animation-play-state:paused" ></path>
<path d="M1606.4466410252828 185.5 L1645.8932820505656 185.5 A15.5 15.5 0 0 1 1645.8932820505656 217.5 L1606.4466410252828 217.5 A15.5 15.5 0 0 1 1606.4466410252828 185.5" fill="#000" transform="matrix(1,0,0,1,-1038.0518798828125,0)" opacity="0.4" style="transform:matrix(1, 0, 0, 1, -1038.05, 0);opacity:0.4;animation-play-state:paused" ></path>
<path d="M1836 216.5 L719.637531660008 216.5 A15.5 15.5 0 0 0 719.637531660008 248.5 L1836 248.5" fill="#fff" transform="matrix(1,0,0,1,-10.960931777954102,0)" style="transform:matrix(1, 0, 0, 1, -10.9609, 0);animation-play-state:paused" ></path>
<path d="M779.9168665404947 216.5 L792.8316408149659 216.5 A15.5 15.5 0 0 1 792.8316408149659 248.5 L779.9168665404947 248.5 A15.5 15.5 0 0 1 779.9168665404947 216.5" fill="#fff" transform="matrix(1,0,0,1,0,0)" opacity="0.457143" style="transform:matrix(1, 0, 0, 1, 0, 0);opacity:0.457143;animation-play-state:paused" ></path>
<path d="M1836 247.5 L750.5372835698731 247.5 A15.5 15.5 0 0 1 750.5372835698731 279.5 L1836 279.5" fill="#fff" transform="matrix(1,0,0,1,25.725393295288086,0)" style="transform:matrix(1, 0, 0, 1, 25.7254, 0);animation-play-state:paused" ></path>
<path d="M1583.5806513577638 247.5 L1600.1613027155277 247.5 A15.5 15.5 0 0 1 1600.1613027155277 279.5 L1583.5806513577638 279.5 A15.5 15.5 0 0 1 1583.5806513577638 247.5" fill="#000" transform="matrix(1,0,0,1,-1357.701171875,0)" opacity="0.0571429" style="transform:matrix(1, 0, 0, 1, -1357.7, 0);opacity:0.0571429;animation-play-state:paused" ></path>
<path d="M1836 278.5 L682.2451964155572 278.5 A15.5 15.5 0 0 0 682.2451964155572 310.5 L1836 310.5" fill="#fff" transform="matrix(1,0,0,1,-32.87490463256836,0)" style="transform:matrix(1, 0, 0, 1, -32.8749, 0);animation-play-state:paused" ></path>
<path d="M813.469355590077 278.5 L834.2741273383637 278.5 A15.5 15.5 0 0 1 834.2741273383637 310.5 L813.469355590077 310.5 A15.5 15.5 0 0 1 813.469355590077 278.5" fill="#fff" transform="matrix(1,0,0,1,0,0)" opacity="1" style="transform:matrix(1, 0, 0, 1, 0, 0);animation-play-state:paused" ></path>
<path d="M1836 309.5 L746.6592121388297 309.5 A15.5 15.5 0 0 1 746.6592121388297 341.5 L1836 341.5" fill="#fff" transform="matrix(1,0,0,1,1.7171579599380493,0)" style="transform:matrix(1, 0, 0, 1, 1.71716, 0);animation-play-state:paused" ></path>
<path d="M1589.4827295436182 309.5 L1611.9654590872365 309.5 A15.5 15.5 0 0 1 1611.9654590872365 341.5 L1589.4827295436182 341.5 A15.5 15.5 0 0 1 1589.4827295436182 309.5" fill="#000" transform="matrix(1,0,0,1,-284.85107421875,0)" opacity="1" style="transform:matrix(1, 0, 0, 1, -284.851, 0);animation-play-state:paused" ></path>
<path d="M1836 340.5 L712.7527931235056 340.5 A15.5 15.5 0 0 0 712.7527931235056 372.5 L1836 372.5" fill="#fff" transform="matrix(1,0,0,1,-3.4216301441192627,0)" style="transform:matrix(1, 0, 0, 1, -3.42163, 0);animation-play-state:paused" ></path>
<path d="M791.248216515658 340.5 L803.3341166206175 340.5 A15.5 15.5 0 0 1 803.3341166206175 372.5 L791.248216515658 372.5 A15.5 15.5 0 0 1 791.248216515658 340.5" fill="#fff" transform="matrix(1,0,0,1,0,0)" opacity="0.0571423" style="transform:matrix(1, 0, 0, 1, 0, 0);opacity:0.0571423;animation-play-state:paused" ></path>
<path d="M1836 371.5 L762.0734962861891 371.5 A15.5 15.5 0 0 1 762.0734962861891 403.5 L1836 403.5" fill="#fff" transform="matrix(1,0,0,1,26.320531845092773,0)" style="transform:matrix(1, 0, 0, 1, 26.3205, 0);animation-play-state:paused" ></path>
<path d="M1584.2230220949416 371.5 L1601.4460441898832 371.5 A15.5 15.5 0 0 1 1601.4460441898832 403.5 L1584.2230220949416 403.5 A15.5 15.5 0 0 1 1584.2230220949416 371.5" fill="#000" transform="matrix(1,0,0,1,-571.553955078125,0)" opacity="0.971428" style="transform:matrix(1, 0, 0, 1, -571.554, 0);opacity:0.971428;animation-play-state:paused" ></path>
<path d="M1836 402.5 L723.7549746740995 402.5 A15.5 15.5 0 0 0 723.7549746740995 434.5 L1836 434.5" fill="#fff" transform="matrix(1,0,0,1,-1.0478144884109497,0)" style="transform:matrix(1, 0, 0, 1, -1.04781, 0);animation-play-state:paused" ></path>
<path d="M813.0216905322109 402.5 L852.5367532651193 402.5 A15.5 15.5 0 0 1 852.5367532651193 434.5 L813.0216905322109 434.5 A15.5 15.5 0 0 1 813.0216905322109 402.5" fill="#fff" transform="matrix(1,0,0,1,0,0)" opacity="0.628571" style="transform:matrix(1, 0, 0, 1, 0, 0);opacity:0.628571;animation-play-state:paused" ></path>
<path d="M1836 433.5 L781.9236404492713 433.5 A15.5 15.5 0 0 1 781.9236404492713 465.5 L1836 465.5" fill="#fff" transform="matrix(1,0,0,1,9.435225486755371,0)" style="transform:matrix(1, 0, 0, 1, 9.43523, 0);animation-play-state:paused" ></path>
<path d="M1604.67009820379 433.5 L1642.3401964075802 433.5 A15.5 15.5 0 0 1 1642.3401964075802 465.5 L1604.67009820379 465.5 A15.5 15.5 0 0 1 1604.67009820379 433.5" fill="#000" transform="matrix(1,0,0,1,-598.0782470703125,0)" opacity="0.914286" style="transform:matrix(1, 0, 0, 1, -598.078, 0);opacity:0.914286;animation-play-state:paused" ></path>
<path d="M1836 464.5 L732.1273205537982 464.5 A15.5 15.5 0 0 0 732.1273205537982 496.5 L1836 496.5" fill="#fff" transform="matrix(1,0,0,1,-2.2201998233795166,0)" style="transform:matrix(1, 0, 0, 1, -2.2202, 0);animation-play-state:paused" ></path>
<path d="M833.4420803345313 464.5 L863.7843903057441 464.5 A15.5 15.5 0 0 1 863.7843903057441 496.5 L833.4420803345313 496.5 A15.5 15.5 0 0 1 833.4420803345313 464.5" fill="#fff" transform="matrix(1,0,0,1,0,0)" opacity="0.285714" style="transform:matrix(1, 0, 0, 1, 0, 0);opacity:0.285714;animation-play-state:paused" ></path>
<path d="M1836 495.5 L773.7639982610542 495.5 A15.5 15.5 0 0 1 773.7639982610542 527.5 L1836 527.5" fill="#fff" transform="matrix(1,0,0,1,26.9879093170166,0)" style="transform:matrix(1, 0, 0, 1, 26.9879, 0);animation-play-state:paused" ></path>
<path d="M1581.585732803428 495.5 L1596.1714656068561 495.5 A15.5 15.5 0 0 1 1596.1714656068561 527.5 L1581.585732803428 527.5 A15.5 15.5 0 0 1 1581.585732803428 495.5" fill="#000" transform="matrix(1,0,0,1,-1748.80517578125,0)" opacity="0.114286" style="transform:matrix(1, 0, 0, 1, -1748.81, 0);opacity:0.114286;animation-play-state:paused" ></path>
<path d="M1836 526.5 L744.5097173732776 526.5 A15.5 15.5 0 0 0 744.5097173732776 558.5 L1836 558.5" fill="#fff" transform="matrix(1,0,0,1,-43.06806182861328,0)" style="transform:matrix(1, 0, 0, 1, -43.0681, 0);animation-play-state:paused" ></path>
<path d="M862.6091919300194 526.5 L877.9515200400298 526.5 A15.5 15.5 0 0 1 877.9515200400298 558.5 L862.6091919300194 558.5 A15.5 15.5 0 0 1 862.6091919300194 526.5" fill="#fff" transform="matrix(1,0,0,1,0,0)" opacity="1" style="transform:matrix(1, 0, 0, 1, 0, 0);animation-play-state:paused" ></path>
<path d="M1836 557.5 L790.1962744703219 557.5 A15.5 15.5 0 0 1 790.1962744703219 589.5 L1836 589.5" fill="#fff" transform="matrix(1,0,0,1,32.080543518066406,0)" style="transform:matrix(1, 0, 0, 1, 32.0805, 0);animation-play-state:paused" ></path>
<path d="M1578.8959434840833 557.5 L1590.7918869681666 557.5 A15.5 15.5 0 0 1 1590.7918869681666 589.5 L1578.8959434840833 589.5 A15.5 15.5 0 0 1 1578.8959434840833 557.5" fill="#000" transform="matrix(1,0,0,1,-436.11126708984375,0)" opacity="0.971429" style="transform:matrix(1, 0, 0, 1, -436.111, 0);opacity:0.971429;animation-play-state:paused" ></path>
<path d="M1836 588.5 L746.56630945318 588.5 A15.5 15.5 0 0 0 746.56630945318 620.5 L1836 620.5" fill="#fff" transform="matrix(1,0,0,1,-23.32530403137207,0)" style="transform:matrix(1, 0, 0, 1, -23.3253, 0);animation-play-state:paused" ></path>
<path d="M853.1368188264629 588.5 L871.5261065083962 588.5 A15.5 15.5 0 0 1 871.5261065083962 620.5 L853.1368188264629 620.5 A15.5 15.5 0 0 1 853.1368188264629 588.5" fill="#fff" transform="matrix(1,0,0,1,0,0)" opacity="0.628571" style="transform:matrix(1, 0, 0, 1, 0, 0);opacity:0.628571;animation-play-state:paused" ></path>
<path d="M1836 619.5 L775.9764338794055 619.5 A15.5 15.5 0 0 1 775.9764338794055 651.5 L1836 651.5" fill="#fff" transform="matrix(1,0,0,1,2.1944313049316406,0)" style="transform:matrix(1, 0, 0, 1, 2.19443, 0);animation-play-state:paused" ></path>
<path d="M1585.3428360964372 619.5 L1603.6856721928743 619.5 A15.5 15.5 0 0 1 1603.6856721928743 651.5 L1585.3428360964372 651.5 A15.5 15.5 0 0 1 1585.3428360964372 619.5" fill="#000" transform="matrix(1,0,0,1,-573.8048706054688,0)" opacity="0.857143" style="transform:matrix(1, 0, 0, 1, -573.805, 0);opacity:0.857143;animation-play-state:paused" ></path>
<path d="M1836 650.5 L755.9268353268324 650.5 A15.5 15.5 0 0 0 755.9268353268324 682.5 L1836 682.5" fill="#fff" transform="matrix(1,0,0,1,-0.9387624263763428,0)" style="transform:matrix(1, 0, 0, 1, -0.938762, 0);animation-play-state:paused" ></path>
<path d="M837.9100930247621 650.5 L867.1963636309215 650.5 A15.5 15.5 0 0 1 867.1963636309215 682.5 L837.9100930247621 682.5 A15.5 15.5 0 0 1 837.9100930247621 650.5" fill="#fff" transform="matrix(1,0,0,1,0,0)" opacity="0.62857" style="transform:matrix(1, 0, 0, 1, 0, 0);opacity:0.62857;animation-play-state:paused" ></path>
<path d="M1836 681.5 L791.503045156988 681.5 A15.5 15.5 0 0 1 791.503045156988 713.5 L1836 713.5" fill="#fff" transform="matrix(1,0,0,1,18.253856658935547,0)" style="transform:matrix(1, 0, 0, 1, 18.2539, 0);animation-play-state:paused" ></path>
<path d="M1586.6192017422256 681.5 L1606.2384034844513 681.5 A15.5 15.5 0 0 1 1606.2384034844513 713.5 L1586.6192017422256 713.5 A15.5 15.5 0 0 1 1586.6192017422256 681.5" fill="#000" transform="matrix(1,0,0,1,-493.3970642089844,0)" opacity="1" style="transform:matrix(1, 0, 0, 1, -493.397, 0);animation-play-state:paused" ></path>
<path d="M1836 712.5 L714.0101121018442 712.5 A15.5 15.5 0 0 0 714.0101121018442 744.5 L1836 744.5" fill="#fff" transform="matrix(1,0,0,1,-16.96417808532715,0)" style="transform:matrix(1, 0, 0, 1, -16.9642, 0);animation-play-state:paused" ></path>
<path d="M851.877784345915 712.5 L875.6403842066655 712.5 A15.5 15.5 0 0 1 875.6403842066655 744.5 L851.877784345915 744.5 A15.5 15.5 0 0 1 851.877784345915 712.5" fill="#fff" transform="matrix(1,0,0,1,0,0)" opacity="0.342857" style="transform:matrix(1, 0, 0, 1, 0, 0);opacity:0.342857;animation-play-state:paused" ></path>
<path d="M1836 743.5 L772.1218072426103 743.5 A15.5 15.5 0 0 1 772.1218072426103 775.5 L1836 775.5" fill="#fff" transform="matrix(1,0,0,1,29.761825561523438,0)" style="transform:matrix(1, 0, 0, 1, 29.7618, 0);animation-play-state:paused" ></path>
<path d="M1589.468300528961 743.5 L1611.936601057922 743.5 A15.5 15.5 0 0 1 1611.936601057922 775.5 L1589.468300528961 775.5 A15.5 15.5 0 0 1 1589.468300528961 743.5" fill="#000" transform="matrix(1,0,0,1,-1572.4600830078125,0)" opacity="0.171429" style="transform:matrix(1, 0, 0, 1, -1572.46, 0);opacity:0.171429;animation-play-state:paused" ></path></g></mask></defs>


<rect x="0" y="0" width="1536" height="754" fill="url(#ldbk-photon-ahff726emjs-lg)" mask="url(#ldbk-photon-ahff726emjs-mask)" style="animation-play-state:paused" ></rect></g></svg>